<?xml version="1.0" standalone="no"?>
<!DOCTYPE svg PUBLIC "-//W3C//DTD SVG 20010904//EN"
 "http://www.w3.org/TR/2001/REC-SVG-20010904/DTD/svg10.dtd">
<svg version="1.0" xmlns="http://www.w3.org/2000/svg"
 width="396.000000pt" height="396.000000pt" viewBox="0 0 396.000000 396.000000"
 preserveAspectRatio="xMidYMid meet">
<metadata>
Created by potrace 1.14, written by Peter Selinger 2001-2017
</metadata>
<g transform="translate(0.000000,396.000000) scale(0.100000,-0.100000)"
fill="#000000" stroke="none">
<path d="M295 3188 c-2 -13 -14 -77 -25 -143 -11 -66 -23 -131 -25 -145 -3
-14 -12 -65 -20 -115 -9 -49 -18 -101 -21 -115 -2 -14 -11 -63 -19 -110 -8
-47 -19 -107 -25 -135 -5 -27 -11 -63 -14 -80 -2 -16 -7 -41 -10 -55 -3 -14
-7 -38 -10 -55 -3 -26 -27 -164 -42 -245 -68 -381 -82 -465 -79 -471 3 -3 94
-6 204 -6 l200 0 11 56 c13 64 17 92 25 141 3 19 12 71 20 115 8 44 17 96 20
115 3 19 10 58 16 87 5 28 11 62 12 74 2 26 -7 37 277 -325 l206 -261 247 -1
c136 0 250 2 252 6 4 6 -99 145 -125 170 -3 3 -27 34 -55 70 -27 36 -54 70
-60 77 -5 6 -46 57 -90 114 -44 56 -135 173 -203 258 -68 86 -127 163 -132
171 -6 12 33 57 158 186 92 93 270 275 395 404 l228 235 -263 3 -263 3 -228
-233 -228 -233 6 45 c4 25 10 63 15 85 5 22 18 96 30 165 12 69 24 135 27 148
l5 22 -206 0 c-205 0 -206 0 -211 -22z"/>
<path d="M2225 3200 c96 -40 51 -36 455 -44 836 -16 1065 -18 1054 -7 -5 6
-37 21 -70 34 -59 22 -61 22 -759 24 -393 1 -691 -2 -680 -7z"/>
<path d="M3307 3123 c-1 -1 -198 -5 -437 -8 -239 -4 -441 -8 -448 -8 -19 -1
91 -96 113 -97 49 -4 1147 -23 1208 -22 26 1 47 -2 47 -7 0 -4 -26 -8 -57 -8
-32 0 -249 -4 -483 -8 -234 -4 -487 -8 -562 -9 l-138 -2 -45 -43 c-25 -23 -45
-46 -45 -49 0 -4 42 -7 93 -8 161 -2 902 -14 1155 -20 211 -4 242 -3 242 10 0
24 -40 126 -50 126 -4 0 -11 11 -14 24 -3 13 -30 49 -59 80 l-53 57 -233 -3
c-128 -2 -233 -4 -234 -5z m567 -142 c2 -3 -13 -6 -34 -6 -21 -1 -37 2 -34 6
5 9 63 9 68 0z"/>
<path d="M1800 2844 c-30 -8 -77 -26 -105 -41 -50 -25 -123 -82 -108 -84 77
-6 654 -12 660 -5 10 9 -118 95 -175 116 -72 28 -196 34 -272 14z"/>
<path d="M3457 2808 c-9 -6 -9 -8 0 -8 17 0 44 -43 52 -83 l7 -32 69 -1 c39
-1 130 -2 204 -3 74 -1 132 -3 129 -6 -3 -3 -88 -7 -189 -10 -101 -2 -192 -4
-201 -4 -10 -1 -24 -16 -32 -35 -8 -19 -33 -49 -57 -65 l-42 -31 124 -1 c215
-1 259 -3 259 -11 0 -5 -69 -8 -152 -8 -84 -1 -229 -2 -323 -5 -93 -2 -250 -4
-348 -6 l-178 -2 2 -54 c1 -29 7 -53 13 -54 25 -2 254 -7 627 -13 l396 -7 25
33 c44 58 79 135 99 212 10 40 10 50 -2 57 -11 7 -11 9 2 9 14 0 17 12 17 70
l0 71 -244 -3 c-135 -1 -250 -6 -257 -10z m363 -290 c0 -4 -7 -8 -15 -8 -8 0
-15 4 -15 8 0 5 7 9 15 9 8 0 15 -4 15 -9z m70 0 c0 -4 -13 -6 -30 -6 -16 1
-30 4 -30 7 0 4 14 7 30 6 17 0 30 -3 30 -7z"/>
<path d="M2757 2803 c-1 -1 -83 -3 -182 -4 l-180 -3 -30 -31 c-62 -61 -62 -60
28 -61 45 -1 218 -4 384 -7 167 -3 305 -2 307 2 3 4 8 30 12 58 l6 51 -172 -2
c-94 0 -172 -2 -173 -3z"/>
<path d="M3028 2655 c-2 -2 -203 -6 -448 -10 -245 -4 -510 -8 -590 -10 -80 -2
-220 -4 -313 -5 -158 -2 -168 -3 -182 -23 -26 -37 -18 -42 58 -43 39 -1 263
-5 497 -9 234 -3 497 -8 585 -10 191 -4 349 -6 391 -6 28 1 31 4 40 51 6 27 8
53 5 57 -6 8 -37 13 -43 8z"/>
<path d="M1464 2472 c-24 -3 -40 -51 -20 -57 6 -3 116 -6 244 -8 168 -3 235
-1 237 7 2 6 6 24 9 39 l7 28 -228 -3 c-126 -2 -238 -4 -249 -6z"/>
<path d="M3287 2353 c-1 -1 -111 -3 -245 -4 -134 -2 -247 -6 -252 -9 -4 -3
-10 -27 -11 -54 l-3 -50 64 -2 c98 -4 641 -13 844 -13 99 -1 177 -3 174 -6 -5
-5 -221 -13 -401 -14 l-99 -1 31 -26 c17 -14 36 -43 42 -65 l12 -39 76 -1
c214 -3 291 -6 297 -12 6 -5 -332 -13 -367 -9 -4 1 -13 -13 -20 -30 -7 -18
-26 -47 -42 -65 -16 -18 -27 -33 -26 -34 2 0 117 -3 256 -5 237 -5 251 -4 256
13 27 94 28 183 2 297 -3 16 -18 53 -32 83 l-27 54 -264 -3 c-145 -2 -264 -4
-265 -5z m578 -293 c3 -6 -4 -10 -17 -10 -18 0 -20 2 -8 10 19 12 18 12 25 0z"/>
<path d="M1490 2320 c-50 -5 -55 -7 -54 -28 1 -12 4 -25 7 -28 6 -6 457 -18
457 -12 1 2 3 20 6 40 l5 37 -183 -2 c-101 -1 -208 -4 -238 -7z"/>
<path d="M2870 2190 l-104 -5 -14 -48 c-8 -27 -12 -50 -10 -52 5 -5 228 -8
232 -4 2 2 8 27 13 56 7 37 7 53 -1 55 -6 2 -58 1 -116 -2z"/>
<path d="M1876 2173 c-1 -1 -89 -3 -196 -4 -107 -1 -198 -3 -203 -6 -8 -5 11
-44 26 -55 6 -3 62 -7 126 -7 64 -1 240 -4 392 -7 l276 -5 15 23 c8 13 18 33
22 46 l8 23 -232 -3 c-127 -2 -232 -4 -234 -5z"/>
<path d="M2722 2030 c-4 -3 -17 -26 -29 -52 l-23 -48 43 -1 c23 0 86 -1 139
-3 l97 -2 6 40 c4 23 8 48 11 57 4 14 -10 16 -117 15 -66 0 -124 -3 -127 -6z"/>
<path d="M1997 2023 c-1 -1 -95 -3 -210 -4 -114 -2 -207 -7 -207 -10 0 -13 62
-60 113 -85 138 -70 312 -63 448 19 56 34 105 76 92 78 -12 2 -234 4 -236 2z"/>
<path d="M3357 1893 c-2 -1 -492 -11 -654 -12 -62 -1 -62 -1 -98 -47 -19 -26
-35 -50 -35 -53 0 -4 35 -7 78 -7 42 0 268 -4 502 -9 234 -4 444 -7 468 -7 23
0 42 -3 42 -7 0 -4 -26 -8 -57 -8 -100 -1 -955 -15 -1023 -17 -63 -1 -67 -3
-128 -54 l-63 -52 138 0 c76 -1 228 -3 338 -5 110 -3 326 -7 480 -9 l280 -5
35 26 c32 24 120 109 120 116 0 2 -25 2 -55 2 -30 -1 -55 2 -55 7 0 4 21 6 48
4 26 -2 54 0 63 5 18 9 62 79 74 117 l7 23 -252 -3 c-138 -2 -252 -4 -253 -5z"/>
<path d="M2947 1584 c-1 -1 -147 -5 -325 -8 -284 -5 -328 -8 -365 -25 -23 -10
-53 -23 -67 -28 -17 -7 169 -10 580 -11 653 0 671 1 785 54 l50 23 -328 -2
c-181 -1 -329 -3 -330 -3z"/>
<path d="M1629 1301 c0 -9 -2 -23 -4 -31 -2 -8 -6 -32 -10 -54 -4 -21 -9 -48
-11 -60 -5 -26 -13 -71 -20 -111 -8 -50 -44 -249 -49 -272 l-5 -23 1008 0
1009 0 6 38 c3 20 24 141 46 267 23 127 43 237 44 245 2 13 -116 15 -1005 16
-904 0 -1008 -2 -1009 -15z"/>
</g>
</svg>
