<?xml version="1.0" encoding="UTF-8" standalone="no"?> <svg id="Layer_1" data-name="Layer 1" xmlns="http://www.w3.org/2000/svg" viewBox="0 0 128 128"><defs><style>.cls-1{fill:#2d3e50;}.cls-2{fill:#2e79bd;}</style></defs><title>b</title><path class="cls-1" d="M66.09979,19.87077a11.25547,11.25547,0,0,0-8.96109,4.0323l-.02459.03174a2.19438,2.19438,0,0,1-.947.70446v0a2.45857,2.45857,0,0,1-1.72607.01492l-.01594-.00583a2.19442,2.19442,0,0,1-.9709-.7029l-.03345-.04242a11.24989,11.24989,0,0,0-8.96109-4.0323,13.011,13.011,0,0,0-1.99481.15525l-.39584.06208a.38215.38215,0,0,0,.00775.066l1.77748,9.159a11.6401,11.6401,0,0,0,22.851,0l1.77748-9.159a.38449.38449,0,0,0,.00775-.066L68.0946,20.026A13.011,13.011,0,0,0,66.09979,19.87077Z"/><path class="cls-1" d="M112.63519,24.73672a5.74963,5.74963,0,0,0-7.83249,2.1654L93.44782,46.9805s-24.29494-3.21184-26.2531-3.46032a2.96215,2.96215,0,0,0-.60092-.02075h-.02068c-.07248-.01038-.13466-.02075-.19684-.03115a2.83975,2.83975,0,0,0-1.1189.07258l-.30055-.09333-5.84317,5.84334L55.964,52.41959l-.81845.83927-.20722.20722-.22783-.23834v-.07248l-.0415.0415-.04143-.0415v.07248l-.2279.23834L53.374,52.41959l-3.14957-3.12872-5.84324-5.84334-.30045.09333a2.854,2.854,0,0,0-1.119-.07258c-2.13418.2798-11.16833,2.13428-14.463,2.81806a4.75023,4.75023,0,0,0-2.52789,1.36747A8.35139,8.35139,0,0,0,24.738,49.37373L16.76056,64.14749l-3.25317,6.009-.36265.67341a5.92408,5.92408,0,0,0-.06208,5.43933l10.899,21.59081a5.52112,5.52112,0,0,0,6.35094,2.84916,3.70792,3.70792,0,0,0,.72519-.23834,4.82851,4.82851,0,0,0,1.03606-.58008v4.87633A22.11234,22.11234,0,0,0,54.20611,126.8795h.00009A22.10917,22.10917,0,0,0,76.31255,105.2827c.27527-11.90351.54985-24.76421.82806-34.63923.01038-.31085.0519-1.84411.1037-3.61573,0-.12436.01028-.259.01028-.39378.08286-2.67276.16572-5.68783.16572-5.74992l13.3442-.09316,5.83287-.0415h.70453a6.25544,6.25544,0,0,0,5.5842-3.54327L114.97659,32.248A5.76115,5.76115,0,0,0,112.63519,24.73672ZM32.09384,88.63944,26.15743,74.49756l5.93641-7.88429Z"/><path class="cls-2" d="M33.6329,6.6148l6.62651,1.16712,1.84363.3243v9.61925a15.20862,15.20862,0,0,1,2.35583-.18137,13.60084,13.60084,0,0,1,10.80589,4.93607l.01514.00583.01511-.00583A13.60088,13.60088,0,0,1,66.1009,17.5441a15.20893,15.20893,0,0,1,2.35585.18137V8.10623l1.84363-.3243L76.9269,6.6148A.86707.86707,0,0,0,77.586,5.48963l-.00031-.00078-.0004-.002a.8474.8474,0,0,0-.65342-.569L55.42271,1.13369a.80471.80471,0,0,0-.14063-.013V1.1205l-.00218.00009-.00218-.00009v.00021a.80471.80471,0,0,0-.14063.013L33.628,4.91784a.8469.8469,0,0,0-.65306.568l-.00076.003-.00021.00052a.867.867,0,0,0,.659,1.12543Z"/></svg>