<?xml version="1.0" encoding="UTF-8" standalone="no"?> <svg id="Layer_1" data-name="Layer 1" xmlns="http://www.w3.org/2000/svg" viewBox="0 0 128 128"><defs><style>.cls-1{fill:#2e79bd;}.cls-2{fill:#2d3e50;}</style></defs><title>b</title><path class="cls-1" d="M32.005,68.72973h0a2.49242,2.49242,0,0,0,2.36395-1.69044q.1255-.37168.25646-.75007.43456-1.257.86791-2.50729h8.92776q.43515,1.24451.8746,2.50059.1346.3849.26371.76376A2.4923,2.4923,0,0,0,47.921,68.72973h.17089a2.4994,2.4994,0,0,0,2.35207-3.34223q-.6532-1.82175-1.26887-3.48571-1.15963-3.13324-2.26975-5.90436-1.11015-2.7707-2.20392-5.26109-.58551-1.333-1.18037-2.63316a3.833,3.833,0,0,0-3.48791-2.23229h0a3.83,3.83,0,0,0-3.48117,2.21676q-.60316,1.30766-1.18226,2.64869Q34.29431,53.227,33.186,55.99743q-1.10873,2.77073-2.26628,5.90436-.615,1.66456-1.26726,3.487A2.4994,2.4994,0,0,0,32.005,68.72973Zm5.72269-11.87068q.52328-1.35037.94718-2.47377.42369-1.1234.75512-1.98073.33174-.85664.504-1.3549.20479.48687.53916,1.34257.334.85664.77672,1.97965.44219,1.12422.9343,2.47858.49167,1.35438,1.01637,2.84126H36.6638Q37.20416,58.2098,37.72766,56.85906Z"/><path class="cls-1" d="M81.20538,62.41307a10.90446,10.90446,0,0,0,2.44076,3.76028,10.20276,10.20276,0,0,0,3.69428,2.32542,13.32258,13.32258,0,0,0,4.6511.79158,14.92847,14.92847,0,0,0,2.63873-.21433,17.25663,17.25663,0,0,0,2.07811-.49465c.10554-.03328.242-.0841.39606-.1458a2.22275,2.22275,0,0,0,1.261-2.81116l-.02345-.0656a2.221,2.221,0,0,0-2.77583-1.35272q-.224.07054-.45763.13645a11.72384,11.72384,0,0,1-3.183.39594,7.02888,7.02888,0,0,1-2.32542-.39594A5.25633,5.25633,0,0,1,87.588,63.07268a6.31957,6.31957,0,0,1-1.40187-2.25943,9.56716,9.56716,0,0,1-.55933-3.519,10.11263,10.11263,0,0,1,.55935-3.47393A6.319,6.319,0,0,1,87.588,51.56093a5.25633,5.25633,0,0,1,2.01211-1.26987,7.02888,7.02888,0,0,1,2.32542-.39594,11.72384,11.72384,0,0,1,3.183.39594q.23366.06589.45763.13645A2.221,2.221,0,0,0,98.342,49.07479l.02345-.0656a2.22275,2.22275,0,0,0-1.261-2.81116c-.154-.0617-.29051-.11251-.39606-.1458a17.25663,17.25663,0,0,0-2.07811-.49465,14.92847,14.92847,0,0,0-2.63873-.21433,13.32258,13.32258,0,0,0-4.6511.79158,10.20276,10.20276,0,0,0-3.69428,2.32542,10.90446,10.90446,0,0,0-2.44076,3.76028,14.61231,14.61231,0,0,0-.55676,8.37434A11.71456,11.71456,0,0,0,81.20538,62.41307Z"/><path class="cls-1" d="M63.93879,80.03287a23.80465,23.80465,0,0,0,4.00773-.31359,9.5033,9.5033,0,0,0,3.15-1.0719,5.622,5.622,0,0,0,2.06159-1.99548,5.83689,5.83689,0,0,0,.7421-3.0513,4.8368,4.8368,0,0,0-2.6219-4.31024,4.83677,4.83677,0,0,0,2.6219-4.31024,5.83677,5.83677,0,0,0-.7421-3.05128,5.62186,5.62186,0,0,0-2.06159-1.99548,9.50331,9.50331,0,0,0-3.15-1.07192,23.80475,23.80475,0,0,0-4.00773-.31357c-.31463,0-.639.00552-.96858.014H56.97888v21.457h5.99133C63.29978,80.02733,63.62417,80.03287,63.93879,80.03287ZM61.99268,62.803q.59367-.06559,1.35236-.08235.75844-.01649,1.41834-.01663a6.78655,6.78655,0,0,1,3.10065.5609,2.01721,2.01721,0,0,1,1.05555,1.94612A2.11269,2.11269,0,0,1,67.897,67.17357a6.98036,6.98036,0,0,1-3.39758.61026H61.99268Zm0,7.99386h2.50676a6.9804,6.9804,0,0,1,3.39758.61024,2.11269,2.11269,0,0,1,1.02256,1.96249A2.01719,2.01719,0,0,1,67.864,75.31575a6.78655,6.78655,0,0,1-3.10065.5609q-.6603,0-1.41834-.01663-.75929-.01688-1.35236-.08233Z"/><path class="cls-2" d="M120.07489,13.29841H68.60368V6.7399a4.60365,4.60365,0,1,0-9.2073,0v6.55851H7.92513a5.95739,5.95739,0,0,0-5.9574,5.95736v1.11485A5.95737,5.95737,0,0,0,7.92513,26.328V97.84123A4.98687,4.98687,0,0,0,12.912,102.8281H35.42007l-4.63351,16.90907a4.84553,4.84553,0,0,0,9.34666,2.56062l2.17739-7.95309,1.02276-3.73271L45.466,102.8281H82.534l2.1326,7.78389,1.02278,3.73271,2.17741,7.95309a4.843,4.843,0,0,0,4.66585,3.566,4.89712,4.89712,0,0,0,1.28655-.17419,4.84264,4.84264,0,0,0,3.39424-5.95239L92.57992,102.8281h22.51059a4.98439,4.98439,0,0,0,4.98438-4.98438V26.328a5.95737,5.95737,0,0,0,5.95738-5.95734V19.25577A5.95738,5.95738,0,0,0,120.07489,13.29841Zm-8.2119,81.3178H16.137V30.75992h95.726Z"/></svg>