<?xml version="1.0" encoding="UTF-8" standalone="no"?> <svg id="Layer_1" data-name="Layer 1" xmlns="http://www.w3.org/2000/svg" viewBox="0 0 128 128"><defs><style>.cls-1{fill:#2d3e50;}.cls-2{fill:#1d75b8;}</style></defs><title>b</title><path class="cls-1" d="M68.56258,90.38137a26.82778,26.82778,0,1,1-8.29321-53.00483V3.39644A60.66236,60.66236,0,1,0,79.43768,122.61815Z"/><path class="cls-2" d="M90.387,68.94123A26.92263,26.92263,0,0,1,75.72337,88.085l10.85335,32.17048a60.80015,60.80015,0,0,0,37.90812-51.3142Zm.09569,42.0533L83.74037,91.00332A33.76877,33.76877,0,0,0,95.41728,75.605h21.32737A54.66,54.66,0,0,1,90.4827,110.99453Z"/><path class="cls-2" d="M110.32012,24.78287q-.569-.6715-1.16189-1.32591A61.10885,61.10885,0,0,0,96.75685,12.88725c-.78255-.50235-1.57879-.991-2.38869-1.45577A60.19045,60.19045,0,0,0,67.78839,3.3974V37.37562A26.87905,26.87905,0,0,1,90.739,61.42316H124.6352A60.38079,60.38079,0,0,0,110.32012,24.78287ZM88.46648,40.56055a34.05573,34.05573,0,0,0-13.67262-8.69019V11.35971a52.83622,52.83622,0,0,1,5.669,1.47275v3.36591a1.36692,1.36692,0,0,0,2.73384,0V13.78588l.00035.00013a53.43784,53.43784,0,0,1,33.64675,40.6317h-6.78027a1.35659,1.35659,0,0,0,.25682-.79255V49.7595a1.36692,1.36692,0,0,0-2.73384,0v3.86565a1.35659,1.35659,0,0,0,.25682.79255H96.50173a1.35661,1.35661,0,0,0,.25684-.79255V49.7595a1.3619,1.3619,0,0,0-2.43387-.845l-.001-.002A33.8447,33.8447,0,0,0,88.46648,40.56055Z"/><path class="cls-2" d="M108.95339,42.51659a1.367,1.367,0,0,0,1.36692-1.36692V37.284a1.36692,1.36692,0,0,0-2.73384,0v3.86565A1.367,1.367,0,0,0,108.95339,42.51659Z"/><path class="cls-2" d="M95.39148,30.04094A1.367,1.367,0,0,0,96.75857,28.674V24.80836a1.367,1.367,0,0,0-2.734,0V28.674A1.367,1.367,0,0,0,95.39148,30.04094Z"/><path class="cls-2" d="M95.39148,42.51659a1.367,1.367,0,0,0,1.36709-1.36692V37.284a1.367,1.367,0,0,0-2.734,0v3.86565A1.367,1.367,0,0,0,95.39148,42.51659Z"/><path class="cls-2" d="M81.82973,23.44144a1.367,1.367,0,0,0-1.36692,1.36692V28.674a1.36692,1.36692,0,0,0,2.73384,0V24.80836A1.367,1.367,0,0,0,81.82973,23.44144Z"/></svg>