<?xml version="1.0" encoding="UTF-8" standalone="no"?> <svg id="Layer_1" data-name="Layer 1" xmlns="http://www.w3.org/2000/svg" viewBox="0 0 128 128"><defs><style>.cls-1{fill:#2e79bd;}.cls-2{fill:#2d3e50;}</style></defs><title>b</title><path class="cls-1" d="M31.29462,107.68647a1.95175,1.95175,0,0,0-2.70375.52021,6.33612,6.33612,0,1,1-8.79717-8.79641,1.94851,1.94851,0,0,0-2.18459-3.22713A10.23237,10.23237,0,1,0,31.817,110.3905a1.94839,1.94839,0,0,0-.52237-2.704Z"/><path class="cls-2" d="M72.80439,49.13545A26.52514,26.52514,0,0,0,38.5855,51.92252L23.19085,67.31717,8.34949,69.2585l-5.456,5.456,50.392,50.39195,5.456-5.456,1.94129-14.84132L76.07741,89.41448a26.52532,26.52532,0,0,0,2.78707-34.21893A24.02805,24.02805,0,0,0,72.80439,49.13545Zm-15.473,7.44949a13.99422,13.99422,0,0,0-9.95921,4.12431l-4.5636,4.5636a2.23286,2.23286,0,1,1-3.15774-3.15774l4.5636-4.5636A18.42131,18.42131,0,0,1,57.33144,52.1202a2.23237,2.23237,0,1,1,0,4.46474Z"/><path class="cls-2" d="M121.96551,6.03049a10.69081,10.69081,0,0,0-15.254.1256A270.34277,270.34277,0,0,0,75.90105,44.08417c.107.06979.21868.1442.32566.22326A29.96708,29.96708,0,0,1,83.69323,51.774c.07906.107.14885.214.2233.32562a270.9442,270.9442,0,0,0,37.92808-30.81043A10.69228,10.69228,0,0,0,121.96551,6.03049Z"/></svg>