<?xml version="1.0" encoding="UTF-8" standalone="no"?> <svg xmlns="http://www.w3.org/2000/svg" viewBox="0 0 128 128"><defs><style>.cls-1{fill:#4d91bb;}.cls-2{fill:#7aaccc;}.cls-3{fill:#2175aa;}.cls-4{fill:#f2f2f2;}.cls-5{fill:#f7f7f7;}.cls-6{fill:#e6e6e6;}.cls-7{fill:#333;}</style></defs><title>12 Student Card</title><g id="_12_Student_Card" data-name="12 Student Card"><rect class="cls-1" x="16" y="32" width="96" height="64" rx="6" ry="6"/><path class="cls-2" d="M16.41,38.41a6,6,0,0,1,6-6h84a6,6,0,0,1,4,1.56A6,6,0,0,0,106,32H22a6,6,0,0,0-6,6c0,56.6-.75,54,2,56.44C15.81,92.06,16.41,94.55,16.41,38.41Z"/><path class="cls-3" d="M109,32.82c1.14,2,.82-1.67.82,55a6,6,0,0,1-6,6c-90.65,0-85,.35-87-.82A6,6,0,0,0,22,96h84a6,6,0,0,0,6-6V38A6,6,0,0,0,109,32.82Z"/><rect class="cls-4" x="16" y="40" width="96" height="48"/><rect class="cls-5" x="16" y="40" width="0.41" height="48"/><path class="cls-6" d="M109.83,87.83c0,.06,0,.11,0,.17H112V40h-2.17Z"/><circle class="cls-1" cx="38.31" cy="64" r="14"/><path class="cls-7" d="M100.72,72.49H64a2,2,0,0,1,0-4h36.74A2,2,0,0,1,100.72,72.49Z"/><path class="cls-7" d="M100.72,59.51H64a2,2,0,0,1,0-4h36.74A2,2,0,0,1,100.72,59.51Z"/></g></svg>