<?xml version="1.0" encoding="UTF-8" standalone="no"?> <svg id="Layer_1" data-name="Layer 1" xmlns="http://www.w3.org/2000/svg" viewBox="0 0 128 128"><defs><style>.cls-1{fill:#2e79bd;}.cls-2{fill:#2d3e50;}</style></defs><title>b</title><path class="cls-1" d="M44.25542,68.96584h0a2.97123,2.97123,0,0,0-3.98107.67524L32.20691,80.12873c-5.61875,6.57805-9.5416,5.52455-11.89863,3.34363A8.70442,8.70442,0,0,1,17.589,77.06722V59.42L4.41256,78.84972A5.0384,5.0384,0,0,0,3.65,82.70527L9.30552,109.8518v2.1927H37.56681l1.11854-12.44076a61.59733,61.59733,0,0,1,4.32843-17.844c1.14257-2.78833,2.276-5.386,3.03-7.4326A4.54038,4.54038,0,0,0,44.25542,68.96584Z"/><path class="cls-2" d="M121.13449,19.277a10.89928,10.89928,0,0,0-7.98767-3.32146H33.14264a11.34032,11.34032,0,0,0-11.306,11.306V78.49021a4.41679,4.41679,0,0,0,1.22024,2.01093c.67549.62567,1.08639.6039,1.26071.59455.42958-.028,2.02337-.35487,4.74715-3.52067L37.068,67.17489a6.80358,6.80358,0,0,1,.64125-.72219V27.2615a4.512,4.512,0,0,1,4.48254-4.47944h70.955a4.512,4.512,0,0,1,4.48256,4.47944V81.0241a4.50656,4.50656,0,0,1-4.48256,4.47944H45.90855a55.8831,55.8831,0,0,0-1.99223,6.82655h69.2305a11.3403,11.3403,0,0,0,11.30911-11.306V27.2615A10.89739,10.89739,0,0,0,121.13449,19.277ZM32.6757,57.32572a4.43925,4.43925,0,1,1,1.34475-3.18138A4.35474,4.35474,0,0,1,32.6757,57.32572Z"/><path class="cls-1" d="M82.70123,41.44335h18.11613a1.73257,1.73257,0,0,0,0-3.46513H82.70123a1.73257,1.73257,0,1,0,0,3.46513Z"/><path class="cls-1" d="M55.45386,41.44335H74.293a1.73257,1.73257,0,0,0-.00025-3.46513H55.45386a1.73257,1.73257,0,0,0,0,3.46513Z"/><path class="cls-1" d="M82.70123,70.7129h18.11613a1.73248,1.73248,0,0,0,0-3.465H82.70123a1.73248,1.73248,0,1,0,0,3.465Z"/><path class="cls-1" d="M55.45386,70.7129H74.293a1.73248,1.73248,0,0,0-.00025-3.465H55.45386a1.73248,1.73248,0,1,0,0,3.465Z"/><path class="cls-1" d="M82.70123,56.07821h18.11613a1.73261,1.73261,0,0,0,0-3.46521H82.70123a1.7326,1.7326,0,0,0,0,3.46521Z"/><path class="cls-1" d="M55.45386,56.07821H74.293a1.7326,1.7326,0,0,0-.00025-3.46521H55.45386a1.7326,1.7326,0,0,0,0,3.46521Z"/></svg>