<?xml version="1.0" encoding="UTF-8" standalone="no"?> <svg xmlns="http://www.w3.org/2000/svg" viewBox="0 0 128 128"><defs><style>.cls-1{fill:#2175aa;}.cls-2{fill:#4d91bb;}.cls-3{fill:#1d6694;}.cls-4{fill:#87dbec;}.cls-5{fill:#a5e4f1;}.cls-6{fill:#69d2e7;}.cls-7{fill:#e6e6e6;}.cls-8{fill:#f2f2f2;}.cls-9{fill:#ccc;}</style></defs><title>28 Calcutor</title><g id="_28_Calculator" data-name="28 Calculator"><rect class="cls-1" x="28" y="16" width="72" height="96" rx="6.36" ry="6.36"/><path class="cls-2" d="M29.06,23.42a6.36,6.36,0,0,1,6.36-6.36c64.38,0,60.81-.52,63.21,1.37a6.35,6.35,0,0,0-5-2.43H34.36A6.36,6.36,0,0,0,28,22.36v83.27a6.35,6.35,0,0,0,2.43,5C28.48,108.15,29.06,113.57,29.06,23.42Z"/><path class="cls-3" d="M97.15,17.06c1.51,2.28,1.06-3.69,1.06,86.79a6.36,6.36,0,0,1-6.36,6.36c-64.44,0-60.54.43-62.79-1.06a6.36,6.36,0,0,0,5.3,2.85H93.64a6.36,6.36,0,0,0,6.36-6.36V22.36A6.36,6.36,0,0,0,97.15,17.06Z"/><rect class="cls-4" x="34" y="22" width="60" height="20" rx="4" ry="4"/><path class="cls-5" d="M92.57,23c1.27,1.5,1,1.67,1,14.57a4,4,0,0,1-4,4c-56.62,0-53,.4-54.57-1,1.68,2-1.36,1.43,55,1.43a4,4,0,0,0,4-4C94,25.19,94.44,24.54,92.57,23Z"/><path class="cls-6" d="M34.52,38.52v-12a4,4,0,0,1,4-4h52a4,4,0,0,1,2.54.94A4,4,0,0,0,90,22H38a4,4,0,0,0-4,4V38a4,4,0,0,0,1.46,3.06A4,4,0,0,1,34.52,38.52Z"/><path class="cls-3" d="M49.36,85.18H37a2,2,0,0,1-2-2V70.82a2,2,0,0,1,2-2H49.36a2,2,0,0,1,2,2V83.18A2,2,0,0,1,49.36,85.18Zm23.82-2V70.82a2,2,0,0,0-2-2H58.82a2,2,0,0,0-2,2V83.18a2,2,0,0,0,2,2H71.18A2,2,0,0,0,73.18,83.18ZM92.27,68.82H81.36a2.73,2.73,0,0,0-2.73,2.73v32.73A2.73,2.73,0,0,0,81.36,107H92.27A2.73,2.73,0,0,0,95,104.27V71.55A2.73,2.73,0,0,0,92.27,68.82ZM51.36,105V92.64a2,2,0,0,0-2-2H37a2,2,0,0,0-2,2V105a2,2,0,0,0,2,2H49.36A2,2,0,0,0,51.36,105Zm21.82,0V92.64a2,2,0,0,0-2-2H58.82a2,2,0,0,0-2,2V105a2,2,0,0,0,2,2H71.18A2,2,0,0,0,73.18,105ZM51.36,61.36V49a2,2,0,0,0-2-2H37a2,2,0,0,0-2,2V61.36a2,2,0,0,0,2,2H49.36A2,2,0,0,0,51.36,61.36Zm21.82,0V49a2,2,0,0,0-2-2H58.82a2,2,0,0,0-2,2V61.36a2,2,0,0,0,2,2H71.18A2,2,0,0,0,73.18,61.36Zm21.82,0V49a2,2,0,0,0-2-2H80.64a2,2,0,0,0-2,2V61.36a2,2,0,0,0,2,2H93A2,2,0,0,0,95,61.36Z"/><path class="cls-7" d="M48.36,84.18H36a2,2,0,0,1-2-2V69.82a2,2,0,0,1,2-2H48.36a2,2,0,0,1,2,2V82.18A2,2,0,0,1,48.36,84.18Zm23.82-2V69.82a2,2,0,0,0-2-2H57.82a2,2,0,0,0-2,2V82.18a2,2,0,0,0,2,2H70.18A2,2,0,0,0,72.18,82.18ZM91.27,67.82H80.36a2.73,2.73,0,0,0-2.73,2.73v32.73A2.73,2.73,0,0,0,80.36,106H91.27A2.73,2.73,0,0,0,94,103.27V70.55A2.73,2.73,0,0,0,91.27,67.82ZM50.36,104V91.64a2,2,0,0,0-2-2H36a2,2,0,0,0-2,2V104a2,2,0,0,0,2,2H48.36A2,2,0,0,0,50.36,104Zm21.82,0V91.64a2,2,0,0,0-2-2H57.82a2,2,0,0,0-2,2V104a2,2,0,0,0,2,2H70.18A2,2,0,0,0,72.18,104ZM50.36,60.36V48a2,2,0,0,0-2-2H36a2,2,0,0,0-2,2V60.36a2,2,0,0,0,2,2H48.36A2,2,0,0,0,50.36,60.36Zm21.82,0V48a2,2,0,0,0-2-2H57.82a2,2,0,0,0-2,2V60.36a2,2,0,0,0,2,2H70.18A2,2,0,0,0,72.18,60.36Zm21.82,0V48a2,2,0,0,0-2-2H79.64a2,2,0,0,0-2,2V60.36a2,2,0,0,0,2,2H92A2,2,0,0,0,94,60.36Z"/><path class="cls-8" d="M78.5,62a2,2,0,0,1-.36-1.14V48.51a2,2,0,0,1,2-2c12.73,0,12.67-.22,13.5.36-.81-1.17-.79-.86-14-.86a2,2,0,0,0-2,2V60.36A2,2,0,0,0,78.5,62Z"/><path class="cls-8" d="M56.68,83.83c-.57-.83-.36-.77-.36-13.5a2,2,0,0,1,2-2c12.73,0,12.67-.22,13.5.36-.81-1.17-.79-.86-14-.86a2,2,0,0,0-2,2C55.82,83,55.51,83,56.68,83.83Z"/><path class="cls-8" d="M34.86,62c-.57-.83-.36-.77-.36-13.5a2,2,0,0,1,2-2c12.73,0,12.67-.22,13.5.36-.81-1.17-.79-.86-14-.86a2,2,0,0,0-2,2V60.36A2,2,0,0,0,34.86,62Z"/><path class="cls-8" d="M56.68,62c-.57-.83-.36-.77-.36-13.5a2,2,0,0,1,2-2H70.69a2,2,0,0,1,1.14.36A2,2,0,0,0,70.18,46H57.82a2,2,0,0,0-2,2C55.82,61.22,55.51,61.2,56.68,62Z"/><path class="cls-8" d="M78.14,71.05a2.73,2.73,0,0,1,2.73-2.73c11.8,0,11.56-.2,12.56.57-1.1-1.43-1.51-1.08-13.07-1.08a2.73,2.73,0,0,0-2.73,2.73c0,35.35-.41,33.75,1.08,34.89C77.91,104.38,78.14,106.53,78.14,71.05Z"/><path class="cls-8" d="M34.86,83.83c-.57-.83-.36-.77-.36-13.5a2,2,0,0,1,2-2c12.73,0,12.67-.22,13.5.36-.81-1.17-.79-.86-14-.86a2,2,0,0,0-2,2C34,83,33.69,83,34.86,83.83Z"/><path class="cls-8" d="M56.33,92.14a2,2,0,0,1,2-2c12.73,0,12.67-.22,13.5.36-.81-1.17-.79-.86-14-.86a2,2,0,0,0-2,2c0,13.22-.31,13.2.86,14C56.11,104.82,56.33,104.88,56.33,92.14Z"/><path class="cls-8" d="M34.51,92.14a2,2,0,0,1,2-2c12.73,0,12.67-.22,13.5.36-.81-1.17-.79-.86-14-.86a2,2,0,0,0-2,2c0,13.22-.31,13.2.86,14C34.29,104.82,34.51,104.88,34.51,92.14Z"/><path class="cls-9" d="M71,89.82c.29.65.18.27.18,13.18a2,2,0,0,1-2,2c-12.92,0-12.53.11-13.18-.18.72,1.58,1.19,1.18,14.18,1.18a2,2,0,0,0,2-2C72.18,91,72.57,90.53,71,89.82Z"/><path class="cls-9" d="M49.18,46.18c.29.65.18.27.18,13.18a2,2,0,0,1-2,2c-12.92,0-12.53.11-13.18-.18.72,1.58,1.19,1.18,14.18,1.18a2,2,0,0,0,2-2C50.36,47.32,50.76,46.89,49.18,46.18Z"/><path class="cls-9" d="M49.18,89.82c.29.65.18.27.18,13.18a2,2,0,0,1-2,2c-12.92,0-12.53.11-13.18-.18.72,1.58,1.19,1.18,14.18,1.18a2,2,0,0,0,2-2C50.36,91,50.76,90.53,49.18,89.82Z"/><path class="cls-9" d="M49.18,68c.29.65.18.27.18,13.18a2,2,0,0,1-2,2c-12.92,0-12.53.11-13.18-.18.72,1.58,1.19,1.18,14.18,1.18a2,2,0,0,0,2-2C50.36,69.14,50.76,68.71,49.18,68Z"/><path class="cls-9" d="M92.82,46.18c.29.65.18.27.18,13.18a2,2,0,0,1-2,2H78.64a2,2,0,0,1-.82-.18,2,2,0,0,0,1.82,1.18H92a2,2,0,0,0,2-2C94,47.32,94.39,46.89,92.82,46.18Z"/><path class="cls-9" d="M92.63,68.19c.58,1,.37-.92.37,34.08A2.73,2.73,0,0,1,90.27,105C79,105,79,105.2,78,104.63c1.05,1.82,1.91,1.37,13.26,1.37A2.73,2.73,0,0,0,94,103.27C94,68,94.47,69.25,92.63,68.19Z"/><path class="cls-9" d="M71,46.18a2,2,0,0,1,.18.82V59.36a2,2,0,0,1-2,2c-12.92,0-12.53.11-13.18-.18.72,1.58,1.19,1.18,14.18,1.18a2,2,0,0,0,2-2V48A2,2,0,0,0,71,46.18Z"/><path class="cls-9" d="M71,68c.29.65.18.27.18,13.18a2,2,0,0,1-2,2c-12.92,0-12.53.11-13.18-.18.72,1.58,1.19,1.18,14.18,1.18a2,2,0,0,0,2-2C72.18,69.14,72.57,68.71,71,68Z"/></g></svg>