<?xml version="1.0" encoding="UTF-8" standalone="no"?> <svg id="Layer_1" data-name="Layer 1" xmlns="http://www.w3.org/2000/svg" viewBox="0 0 128 128"><defs><style>.cls-1{fill:#2d3e50;}.cls-2{fill:#2e79bd;}</style></defs><title>b</title><path class="cls-1" d="M112.38364.93538H25.39912a12.48921,12.48921,0,0,0-12.475,12.475V30.25359H5.96544a2.82412,2.82412,0,0,0,0,5.64825h6.95864v25.274H5.96544a2.82412,2.82412,0,1,0,0,5.64825h6.95864V92.09819H5.96544a2.82412,2.82412,0,0,0,0,5.64825h6.95864v16.84313a12.48921,12.48921,0,0,0,12.475,12.475h86.98451a12.48921,12.48921,0,0,0,12.475-12.475V13.41043A12.48921,12.48921,0,0,0,112.38364.93538Zm4.94405,113.65419a4.94958,4.94958,0,0,1-4.94405,4.94405H25.39912a4.94958,4.94958,0,0,1-4.94405-4.94405V97.74644h4.79518a6.93759,6.93759,0,1,0,0-5.64825H20.45507V66.82412h4.79518a6.93759,6.93759,0,1,0,0-5.64825H20.45507v-25.274h4.79518a6.93759,6.93759,0,1,0,0-5.64825H20.45507V13.41043a4.94958,4.94958,0,0,1,4.94405-4.94405h86.98451a4.94958,4.94958,0,0,1,4.94405,4.94405Z"/><path class="cls-2" d="M62.78713,73.739a2.80437,2.80437,0,0,0-.641-.77277.5714.5714,0,0,0-.41108-.12428,1.32518,1.32518,0,0,0-.60508.32087c-.04666.03634-.09075.07093-.1306.09808q-.35332.24041-.70979.47586a15.16425,15.16425,0,0,1-1.34306.814c-.03821.01988-.07.03551-.09613.04749-.01738-.0322-.03559-.06516-.05407-.09883l-.02264-.04068a3.39472,3.39472,0,0,1-.171-.40025,2.03947,2.03947,0,0,1-.06455-.20282l-.0518-.14166c-.01965-.06616-.04028-.12982-.06033-.19127-.0204-.0624-.04028-.12258-.05711-.18251-.01775-.061-.036-.11747-.05289-.17019-.01738-.05412-.03344-.10391-.05286-.17312-.01847-.0505-.03169-.09466-.04329-.133-.01135-.03761-.0216-.07079-.03206-.09934a43.44566,43.44566,0,0,1-1.79223-7.98005c-.05447-.34945-.12112-.69124-.18731-1.03026a13.88984,13.88984,0,0,1-.27588-1.84259,5.38886,5.38886,0,0,1-.01669-.80089,4.28744,4.28744,0,0,0-.021-.58517,3.04268,3.04268,0,0,0-.58865-1.597,1.10062,1.10062,0,0,0-1.1417-.40872.67292.67292,0,0,0-.24856.06174,2.55841,2.55841,0,0,0-.97206.91575c-.06639.08851-.1285.17119-.18461.23879-.26493.31558-.52429.639-.78452.96384-.23758.29593-.47554.59307-.71965.88578l-.06915.08981c-.23144.27683-.47017.54693-.70991.818l-.28415.3223c-.1753.202-.35356.39591-.53208.58994-.04246.04634-.09569.09549-.151.147a1.57081,1.57081,0,0,0-.41335.50849.919.919,0,0,0,.129.93244,1.75243,1.75243,0,0,0,1.44022.60065A2.25982,2.25982,0,0,0,51.932,64.914c.14534-.13827.28513-.28522.423-.43012a5.90767,5.90767,0,0,1,.64449-.61634,1.77414,1.77414,0,0,1,.16769-.11376,10.55713,10.55713,0,0,1,.74186,3.0391c.07487.5157.14548,1.003.24494,1.46739.3144,1.5081.68492,3.14611,1.13236,5.00625.10049.43139.22448.90075.3633,1.41422.04936.18616.099.373.15993.56463.089.31728.18343.64863.28993,1.01518-.01069.01543-.02318.03177-.03689.0499l-.02738.03784a3.06136,3.06136,0,0,1-.72557.53222l-.15993.09624c-.13454.08371-.30219.17128-.48356.266-.85539.448-2.14786,1.1244-1.70506,2.34171a1.767,1.767,0,0,0,.98429.9312,1.32938,1.32938,0,0,0,1.501-.32733c.06343-.04755.12773-.09569.19461-.14264l.16608-.11963c.10359-.07535.2071-.15094.32592-.22787a14.10245,14.10245,0,0,1,1.21642-.79871c.00419-.009.03261-.0023.0784.01307a1.88952,1.88952,0,0,1,.38625.20937,1.49975,1.49975,0,0,0,.55946.26218,1.90518,1.90518,0,0,0,.82606-.13965,2.57865,2.57865,0,0,0,1.08812-.717.85962.85962,0,0,0,.18357-.86585c-.03281-.09049-.08656-.20521-.15166-.34227l-.0514-.10834c-.03867-.07714-.06708-.14462-.09259-.20409l-.0497-.1154a3.99935,3.99935,0,0,1,1.19622-.79319l.26669-.13876a4.06559,4.06559,0,0,0,1.33369-.94066c.22819-.266.10856-.69842-.00129-1.00033A1.729,1.729,0,0,0,62.78713,73.739Z"/><path class="cls-2" d="M71.17193,62.57481a5.14733,5.14733,0,0,0-1.91191.5349,7.16393,7.16393,0,0,1-1.15931.41705c-.08894.02022-.17567.03559-.24968.04769a12.85275,12.85275,0,0,1-.51616-1.22688c-.029-.07935-.06286-.20774-.105-.3639-.2387-.88538-.51628-1.77315-1.05057-2.0507a.7353.7353,0,0,0-.60482-.03628,1.1404,1.1404,0,0,0-.69342.62594c-.30923.73381.17418,1.80242.56265,2.66112a5.91238,5.91238,0,0,1,.35169.87967,2.86206,2.86206,0,0,1,.061.37835l.00244.03016q-.2932.11165-.61031.24864l-.25275.10957c-.53469.23221-1.08585.47367-1.644.66282-.07467.02571-.17338.05-.28286.07777-.50108.12652-1.18755.30021-1.29163.84335a1.35469,1.35469,0,0,0,.51881,1.401,1.39268,1.39268,0,0,0,1.362-.17961,3.43258,3.43258,0,0,1,.31653-.14735c.71341-.26763,1.41347-.52418,2.12418-.71721.12649-.034.24066-.07087.34285-.104l.03287-.01043.03844.13586c.11267.39961.21555.76429.29978,1.09269l.018.063a.24284.24284,0,0,0,.014.04844,7.116,7.116,0,0,0,.591,1.79665c.28364.50625.78615.63243,1.49365.375l.00615-.00224a1.00332,1.00332,0,0,0,.62706-.4839.87755.87755,0,0,0-.06567-.69919c-.05407-.12368-.10256-.25772-.16085-.41786l-.02384-.06518a17.64679,17.64679,0,0,1-.66389-2.21189c-.01365-.131-.02241-.24715-.0243-.398.091-.03378.17165-.0657.23089-.09325a2.34284,2.34284,0,0,0,.35836-.13106,9.77637,9.77637,0,0,1,1.55039-.56035c.1208-.03347.24781-.06013.37594-.08745a3.29614,3.29614,0,0,0,.88487-.276.89965.89965,0,0,0,.48563-.52157,1.22385,1.22385,0,0,0-.20684-.911A1.202,1.202,0,0,0,71.17193,62.57481Z"/><path class="cls-2" d="M89.1166,64.6193a.98991.98991,0,0,0-.50266-.62424.93245.93245,0,0,0-.734.07225c-.0495.02051-.09822.041-.14867.0568-.14413.04789-.28884.09357-.43368.13959-.14712.04631-.29418.09288-.43644.14008-1.08335.33923-2.204.68991-3.29019,1.085l-.15623.05662c-.42917.15482-.79437.29722-1.107.41955.32256-.40461.63866-.83715.94425-1.29258.05473-.0765.1079-.158.16166-.24086.04375-.06766.08831-.13614.13534-.20368l.00687-.01051c.2431-.38844.48841-.79641.7143-1.19967a2.17762,2.17762,0,0,0,.11957-.2l.06475-.115A24.97187,24.97187,0,0,0,85.9492,59.4703c.26967-.70221.49287-1.34487.68308-1.9658l.10325-.33969A6.87481,6.87481,0,0,0,87.14189,53.21a4.1342,4.1342,0,0,0-.38-.88185,7.01576,7.01576,0,0,0-4.33214-3.04237,5.95123,5.95123,0,0,0-1.76447-.1539,6.873,6.873,0,0,0-4.33334,2.06262,1.08058,1.08058,0,0,0-.13051.12908,14.7365,14.7365,0,0,0-1.49986,1.65212l-.039.0491-.01215.06116a1.47713,1.47713,0,0,0,.16476.99355,1.9698,1.9698,0,0,0,.834.85473,1.30838,1.30838,0,0,0,1.20252.07225l.06246-.029.04-.05611c.07685-.10894.16206-.22066.24813-.32923a10.91429,10.91429,0,0,1,.87866-1.05554l.0466-.0497a.57691.57691,0,0,0,.05642-.05944,4.74637,4.74637,0,0,1,1.02362-.83261,2.63381,2.63381,0,0,1,.467-.19544,3.31286,3.31286,0,0,1,2.95625.57721,3.0924,3.0924,0,0,1,1.21085,2.57743,14.33487,14.33487,0,0,1-1.73649,5.35662c-.18441.38062-.3766.76406-.58037,1.14293-.26508.49522-.54834.98533-.84011,1.45444a17.45392,17.45392,0,0,1-1.93624,2.53736c-.31693.3402-.60695.65237-.869.96341a6.39084,6.39084,0,0,0-1.302,2.42207l-.01459.05889c-.00833.0314-.01655.06306-.02146.0884-.18834.8799-.06088,2.40018,1.08321,2.73415a1.12056,1.12056,0,0,0,.71815-.01454,2.67783,2.67783,0,0,0,1.08576-1.0213,4.35808,4.35808,0,0,1,.40444-.502A10.8885,10.8885,0,0,1,82.232,69.021a15.38084,15.38084,0,0,1,2.13513-.99607,26.72389,26.72389,0,0,1,3.39714-.98656c.08374-.01913.16553-.034.24442-.04818a1.275,1.275,0,0,0,1.07493-.67472,2.13166,2.13166,0,0,0,.08055-1.534Z"/><path class="cls-2" d="M92.98606,54.67537c.64774-.29926,1.29338-.61758,1.94064-.93646a42.88815,42.88815,0,0,1,3.92523-1.77338,28.40871,28.40871,0,0,1,3.67078-1.01116l.81218-.18783c1.44289-.342,1.47817-1.19907,1.37041-1.681a1.7598,1.7598,0,0,0-.10811-.32636,1.9854,1.9854,0,0,0-1.48173-1.15184,4.72972,4.72972,0,0,0-2.532.48172c-.56647.24491-1.129.49775-1.69179.75042-1.26592.569-2.591,1.15827-3.90472,1.6406a21.435,21.435,0,0,0-3.614,1.6071,1.689,1.689,0,0,0-.91882,1.0745,1.35254,1.35254,0,0,0,.41855,1.44085,2.05767,2.05767,0,0,0,1.91286.15556Q92.88688,54.721,92.98606,54.67537Z"/><path class="cls-2" d="M106.4781,53.92978a1.98494,1.98494,0,0,0-1.48167-1.15158,4.72488,4.72488,0,0,0-2.532.48172c-.56811.24551-1.13225.499-1.69665.75246-1.26434.56813-2.58789,1.17051-3.90006,1.63864a21.38979,21.38979,0,0,0-3.61358,1.60667,1.68928,1.68928,0,0,0-.91905,1.07462,1.35306,1.35306,0,0,0,.41832,1.44091,2.05844,2.05844,0,0,0,1.9134.15565c.06728-.02462.13425-.05231.2-.08251.64722-.29935,1.29221-.61714,1.93932-.93571a42.9187,42.9187,0,0,1,3.92646-1.77436,28.71907,28.71907,0,0,1,3.66891-1.01047l.81437-.18837c1.44539-.341,1.47819-1.19907,1.37038-1.6805A1.75068,1.75068,0,0,0,106.4781,53.92978Z"/></svg>