<?xml version="1.0" encoding="utf-8"?>
<!-- Generator: Adobe Illustrator 22.0.1, SVG Export Plug-In . SVG Version: 6.00 Build 0)  -->
<svg version="1.1" id="Layer_1" xmlns="http://www.w3.org/2000/svg" xmlns:xlink="http://www.w3.org/1999/xlink" x="0px" y="0px"
	 viewBox="0 0 64 64" enable-background="new 0 0 64 64" xml:space="preserve">
<g>
	<path fill="#404958" d="M48.5306511,43.8551598c-3.1004601-3.8170509-8.385006-4.510334-12.2828484-2.0864716l-0.0000191-0.0000153
		c-5.6173725-3.6200027-10.3961658-8.3987961-14.0161705-14.0161705l-0.0000038-0.0000095
		c2.423872-3.8978558,1.7305737-9.1824322-2.0865402-12.2829094c-3.3827858-2.7476902-8.35182-2.7674971-11.7536039-0.0433636
		c-4.4563527,3.5686302-4.7231646,10.094389-0.8004532,14.0171204c0.0199018,0.0199013,0.0407925,0.0381374,0.0608215,0.0578175
		c0.0098138,0.0100327,0.0180345,0.0210361,0.027976,0.0309792l26.8515739,26.851572
		c0.0029106,0.0029106,0.0061302,0.0052719,0.0090408,0.0081635c0.0056763,0.0056953,0.0108376,0.0116997,0.0165329,0.017395
		c3.9227142,3.9227333,10.4485054,3.6559181,14.0171051-0.8004723
		C51.2981758,52.2069855,51.2783661,47.2379379,48.5306511,43.8551598z"/>
	<g>
		<g>
			<path fill="#3976B7" d="M57.1694031,32.5069923h-0.0115051c-1.0627136,0-1.9188614-0.8354931-1.9865417-1.8960476
				c-0.3487244-5.4645119-2.6086426-10.8352947-6.7797394-15.0063915c-4.1680908-4.168088-9.532795-6.4276495-15.0041275-6.7821255
				c-1.0595322-0.0686455-1.8935966-0.9246011-1.8935966-1.9863567V6.8302903c0-1.1339173,0.9465065-2.0595775,2.0783234-1.9906192
				c6.4279022,0.3916354,12.742794,3.0368643,17.6451035,7.9391766c4.9023323,4.9023294,7.5475845,11.217309,7.9426575,17.6487427
				C59.2295265,31.5597954,58.3037453,32.5069923,57.1694031,32.5069923z"/>
		</g>
		<g>
			<path fill="#3976B7" d="M49.156929,32.5047073l-0.0148849,0.0000153
				c-1.0263596,0.0012093-1.8879128-0.7775612-1.9801292-1.7997723c-0.3113289-3.4511223-1.7852287-6.8125038-4.421711-9.4489861
				c-2.6324081-2.6324062-5.9965248-4.1091251-9.4455757-4.4185104c-1.0217361-0.0916519-1.8007355-0.9520178-1.8007355-1.9778576
				V14.84202c0-1.1687555,1.0023994-2.0938158,2.1663818-1.9882956c4.3458443,0.3939724,8.5848923,2.2557926,11.9056358,5.5765352
				c3.3254089,3.3254108,5.1844101,7.5625687,5.5769997,11.9084187
				C51.2479668,31.5016212,50.3246078,32.5033302,49.156929,32.5047073z"/>
		</g>
		<g>
			<path fill="#3976B7" d="M41.1043053,32.5022774h-0.0106888c-0.9569969,0-1.7936363-0.6779747-1.9537468-1.621479
				c-0.2476006-1.459074-0.9312897-2.853632-2.0510788-3.9734211c-1.1197929-1.1197929-2.5143547-1.8034821-3.9734459-2.0510921
				c-0.9435081-0.1601124-1.6214752-0.9967613-1.6214676-1.9537582v-0.0106945
				c0.0000076-1.2306747,1.1066284-2.1761837,2.3197021-1.9687977c2.2376289,0.3825417,4.3783455,1.4360619,6.1009178,3.1586361
				c1.7225533,1.7225513,2.7760658,3.8632603,3.1586189,6.1008949
				C43.2805099,31.395647,42.3349876,32.5022774,41.1043053,32.5022774z"/>
		</g>
	</g>
</g>
</svg>
