<?xml version="1.0" standalone="no"?>
<!DOCTYPE svg PUBLIC "-//W3C//DTD SVG 20010904//EN"
 "http://www.w3.org/TR/2001/REC-SVG-20010904/DTD/svg10.dtd">
<svg version="1.0" xmlns="http://www.w3.org/2000/svg"
 width="512.000000pt" height="512.000000pt" viewBox="0 0 512.000000 512.000000"
 preserveAspectRatio="xMidYMid meet">

<g transform="translate(0.000000,512.000000) scale(0.100000,-0.100000)"
fill="#000000" stroke="none">
<path d="M2190 4707 c-19 -7 -42 -17 -51 -23 -10 -5 -461 -397 -1004 -872
-1033 -904 -1025 -896 -1010 -963 7 -30 210 -270 244 -289 30 -15 94 -12 121
7 14 9 61 49 105 87 44 39 90 80 103 90 l22 19 0 -846 0 -845 -119 -4 c-103
-3 -124 -6 -148 -24 -48 -36 -67 -80 -67 -153 0 -77 19 -119 66 -153 l33 -23
1353 -3 1352 -2 0 -88 c0 -114 24 -166 90 -200 43 -22 51 -22 380 -22 306 0
339 2 376 19 23 10 45 24 49 31 5 8 11 7 24 -4 47 -43 76 -46 421 -46 255 0
338 3 363 14 49 20 95 78 102 128 3 24 5 187 3 363 -3 354 -4 360 -70 407 -31
22 -43 23 -210 26 l-177 3 9 25 c6 14 10 178 10 375 0 389 1 385 -67 436 l-36
28 -329 3 -328 3 0 276 0 277 28 -26 c15 -14 69 -62 120 -106 86 -76 97 -82
137 -82 24 0 50 3 59 6 15 6 177 186 224 248 35 47 31 107 -10 150 -18 19
-471 417 -1006 885 -1016 887 -1010 882 -1096 881 -17 -1 -47 -7 -66 -13z
m233 -735 c67 -59 386 -340 710 -625 l587 -518 0 -318 0 -318 -25 -13 c-14 -8
-36 -30 -48 -49 -22 -35 -22 -42 -22 -381 0 -190 4 -360 8 -378 l9 -32 -170 0
c-159 0 -171 -1 -202 -22 -61 -42 -75 -71 -79 -164 l-3 -84 -244 0 -244 0 0
358 c0 389 -4 427 -57 524 -37 67 -121 143 -199 180 -91 43 -219 51 -321 20
-121 -37 -218 -124 -275 -248 -22 -48 -23 -59 -28 -439 l-5 -390 -510 0 -510
0 -2 875 -2 875 675 595 c372 327 694 610 716 628 30 24 51 32 80 32 35 0 50
-10 161 -108z m2028 -1855 c37 -28 39 -49 39 -386 l0 -330 -24 -28 -24 -28
-347 0 -347 0 -24 28 -24 28 0 340 0 340 25 24 24 25 343 0 c254 -1 347 -4
359 -13z m-2132 -27 c119 -20 216 -91 269 -200 l27 -55 3 -377 3 -378 -366 0
-365 0 0 343 c0 384 5 423 66 515 53 81 138 136 234 152 64 11 59 11 129 0z
m1520 -827 c150 -5 177 -9 193 -25 17 -17 18 -42 18 -367 l0 -350 -26 -20
c-26 -20 -38 -21 -366 -21 l-339 0 -24 25 -25 24 0 345 0 344 31 26 c30 26 32
26 197 26 92 0 245 -3 341 -7z m1057 -26 l24 -28 0 -340 0 -340 -25 -24 -24
-25 -344 0 -344 0 -24 26 -24 26 -3 329 c-3 356 0 382 51 394 32 7 208 11 465
11 l224 -1 24 -28z m-2878 -247 l1173 0 -3 -102 -3 -103 -1338 0 -1339 0 -24
28 c-44 52 -28 153 30 178 12 5 88 7 176 4 85 -3 683 -5 1328 -5z"/>
<path d="M1083 2450 c-45 -10 -81 -36 -103 -73 -19 -30 -20 -53 -20 -363 0
-327 0 -331 23 -364 12 -18 35 -43 50 -54 27 -20 40 -21 285 -21 250 0 258 1
293 23 68 42 70 52 70 415 0 178 -5 335 -10 348 -14 38 -65 80 -107 90 -47 10
-436 10 -481 -1z m197 -235 l0 -166 -122 3 -123 3 0 138 0 139 28 24 c25 22
37 24 123 24 l94 0 0 -165z m300 145 c28 -28 31 -50 28 -185 l-3 -120 -122 -3
-123 -3 0 166 0 165 100 0 c86 0 103 -3 120 -20z m-300 -545 l0 -165 -97 0
c-106 1 -125 8 -143 54 -11 30 -14 259 -3 269 3 4 60 7 125 7 l118 0 0 -165z
m328 19 c-4 -185 -3 -184 -149 -184 l-99 0 0 165 0 165 126 0 125 0 -3 -146z"/>
<path d="M2951 2450 c-46 -11 -83 -40 -103 -81 -16 -30 -18 -69 -18 -352 0
-355 2 -364 66 -413 l37 -29 262 0 262 0 37 29 c66 50 67 58 64 426 -3 316 -4
330 -24 357 -12 15 -36 37 -55 48 -31 18 -54 20 -264 22 -126 1 -245 -2 -264
-7z m207 -232 l-3 -163 -122 -3 -123 -3 0 145 c0 144 0 145 26 165 23 18 41
21 126 21 l98 0 -2 -162z m296 141 c26 -20 26 -21 26 -165 l0 -145 -122 3
-123 3 -3 163 -2 162 98 0 c85 0 103 -3 126 -21z m-296 -546 l2 -163 -102 0
c-91 0 -104 2 -125 22 -22 21 -23 28 -23 165 l0 144 123 -3 122 -3 3 -162z
m322 25 c0 -132 -2 -143 -22 -165 -20 -21 -30 -23 -125 -23 l-103 0 0 158 c0
87 3 162 7 165 3 4 60 7 125 7 l118 0 0 -142z"/>
<path d="M3482 1088 c-9 -9 -12 -70 -12 -214 0 -176 2 -205 17 -219 24 -24
252 -18 300 8 41 22 63 64 63 118 0 33 -6 47 -33 74 l-33 33 23 26 c42 50 23
140 -37 171 -37 19 -269 22 -288 3z m229 -78 c23 -13 25 -53 3 -74 -11 -11
-35 -16 -80 -16 l-64 0 0 50 0 50 61 0 c33 0 69 -5 80 -10z m19 -190 c53 -53
5 -100 -99 -100 l-61 0 0 60 0 60 70 0 c57 0 74 -4 90 -20z"/>
</g>
</svg>
